<?xml version="1.0" encoding="utf-8"?>
<!-- Generator: Adobe Illustrator 26.0.1, SVG Export Plug-In . SVG Version: 6.00 Build 0)  -->
<svg version="1.1" id="Layer_1" xmlns="http://www.w3.org/2000/svg" xmlns:xlink="http://www.w3.org/1999/xlink" x="0px" y="0px"
	 viewBox="0 0 50 155.3" style="enable-background:new 0 0 50 155.3;" xml:space="preserve">
<style type="text/css">
	.st0{fill:#EECC66;}
</style>
<path class="st0" d="M45.7,105.9c0-9.6-5.3-13.5-7.5-14.7c-0.4-0.2-0.8,0.1-0.7,0.5c0.5,2.4,1.2,8.6-3.9,8.6c-1.6,0-3-1.1-4.1-2.7
	l0-1.4l0-0.2l0,0l0-1.6l0,0l0-0.1l-0.1-4.2l0-0.1l0,0l0-2l0-0.2l0,0l0-2.1l0,0l0-0.3h0l0-2.2l0,0l0-0.1l0-2.6l0,0l0-0.1l-0.1-5.7
	l0,0l0-0.1L29,71.7l0,0l0,0L29,68.6l0,0l0-0.3h0l-0.1-3.2l0,0l0-0.3l0,0l-0.1-3.7l0-0.1l0,0l-0.1-3.7l0,0l0-0.3l0,0L28.7,53l0-0.2
	l0,0l-0.1-4.2l0,0l0-0.1l-0.1-4.8l0-0.1l0,0l-0.1-4.8l0,0l0-0.3l0,0l-0.1-5.2l0,0l0-0.1l-0.1-5.7v-0.8h0.1c0-3,1.1-4.6,1.7-5.1
	c0.2-0.2,0.4-0.5,0.4-0.9c0,0-0.1-1.6-0.1-3.6h0.9v0.2h0.7c0.4,0.4,2.4,0.7,2.4,0.7c0,0,0,0,0,0c0,0,0.3-0.7,0.3-1.5
	c0-0.7-0.3-1.5-0.3-1.5c0,0,0,0,0,0c0,0-2,0.3-2.4,0.7h-0.7v0.2h-0.9c-0.1-1.6-0.1-3.3-0.1-4.5H31V12h0.7c0.4,0.4,2.4,0.7,2.4,0.7
	c0,0,0,0,0,0c0,0,0.3-0.7,0.3-1.5c0-0.7-0.3-1.5-0.3-1.5c0,0,0,0,0,0c0,0-2,0.3-2.4,0.7H31v0.2h-0.8c0-1.2,0.1-2.9,0.3-4.5h0.8v0.2
	h0.7c0.4,0.4,2.4,0.7,2.4,0.7c0,0,0,0,0,0c0,0,0.3-0.7,0.3-1.5c0-0.7-0.3-1.5-0.3-1.5c0,0,0,0,0,0c0,0-2,0.3-2.4,0.7h-0.7v0.2h-0.7
	C30.7,3,30.9,1,30.9,1c0-0.2-0.2-0.4-0.4-0.3c-0.4,0.2-1,0.4-1.3,0.4c-0.9,0-2.6-1.1-3.5-1.1c-0.2,0-0.8,0-0.8,0S24.3,0,24,0
	c-0.9,0-2.6,1.1-3.5,1.1c-0.3,0-0.9-0.2-1.3-0.4C19,0.6,18.8,0.8,18.8,1c0,0,0.2,2,0.4,4.3h-0.7V5h-0.7c-0.4-0.4-2.4-0.7-2.4-0.7
	c0,0,0,0,0,0c0,0-0.3,0.7-0.3,1.5c0,0.7,0.3,1.5,0.3,1.5c0,0,0,0,0,0c0,0,2-0.3,2.4-0.7h0.7V6.3h0.8c0.1,1.6,0.2,3.2,0.3,4.5h-0.8
	v-0.2h-0.7c-0.4-0.4-2.4-0.7-2.4-0.7c0,0,0,0,0,0c0,0-0.3,0.7-0.3,1.5c0,0.7,0.3,1.5,0.3,1.5c0,0,0,0,0,0c0,0,2-0.3,2.4-0.7h0.7
	v-0.2h0.8c0,1.2-0.1,2.9-0.1,4.5h-0.9V16h-0.7c-0.4-0.4-2.4-0.7-2.4-0.7c0,0,0,0,0,0c0,0-0.3,0.7-0.3,1.5c0,0.7,0.3,1.5,0.3,1.5
	c0,0,0,0,0,0c0,0,2-0.3,2.4-0.7h0.7v-0.2h0.9c-0.1,2-0.1,3.6-0.1,3.6c0,0.3,0.1,0.6,0.4,0.9c0.6,0.6,1.7,2.1,1.7,5.1h0.1v0.8
	l-0.1,5.7l0,0.1l0,0l-0.1,5.4l0,0l0,0l-0.1,4.8l0,0l0,0.1l-0.1,4.8l0,0.1l0,0L21,52.9l0,0l0,0.2L21,57.2l0,0.1l0,0l-0.1,3.7l0,0
	l0,0.1l-0.1,3.7l0,0l0,0.3l0,0l-0.1,3.2l0,0l0,0.3l0,0l-0.1,3.1l0,0l0,0L20.7,75l0,0.1l0,0l-0.1,5.7l0,0.1l0,0l0,2.6l0,0.1l0,0
	l0,2.4l0,0.1l0,0l0,2.1l0,0l0,0.2l0,2l0,0l0,0.1l-0.1,4.2l0,0.1l0,0l0,1.6l0,0l0,0.2l0,1.4c-1.2,1.6-2.5,2.7-4.1,2.7
	c-5.2,0-4.4-6.2-3.9-8.6c0.1-0.4-0.3-0.7-0.7-0.5C9.3,92.4,4,96.3,4,105.9c0,7.1,3.8,12.2,3.8,15.9c0,7.3-7.8,6.4-7.8,19.3
	c0,7.3,8.3,14.2,16.5,14.2h8.4h8.4c8.2,0,16.5-6.9,16.5-14.2c0-12.9-7.8-11.9-7.8-19.3C42,118.1,45.7,113,45.7,105.9z"/>
<rect x="22" y="111.7" width="6.2" height="23.1"/>
<rect x="21.7" y="111.4" transform="matrix(6.123234e-17 -1 1 6.123234e-17 -98.0829 147.7147)" width="6.2" height="23.1"/>
</svg>
