<?xml version="1.0" encoding="utf-8"?>
<!-- Generator: Adobe Illustrator 26.0.3, SVG Export Plug-In . SVG Version: 6.00 Build 0)  -->
<svg version="1.1" id="layer" xmlns="http://www.w3.org/2000/svg" xmlns:xlink="http://www.w3.org/1999/xlink" x="0px" y="0px"
	 viewBox="0 0 40 46" style="enable-background:new 0 0 40 46;" xml:space="preserve">
<style type="text/css">
	.st0{fill:#FFFFF0;}
</style>
<path class="st0" d="M35.9,4.5C29.3-0.2,20,0,20,0S10.7-0.2,4.1,4.5C1.5,6.3,0,9.3,0,12.4c0,10.5,10.3,27.8,17.3,32.7
	C18.1,45.7,19,46,20,46s1.9-0.3,2.7-0.9c7-4.9,17.3-22.3,17.3-32.7C40,9.3,38.5,6.3,35.9,4.5z M19.9,37c-3.5-0.2-4.9-1.3-4.9-3.2
	s1.5-3.6,1.5-5.1c0-1.3-0.9-2.6-0.9-4.1c0-1.2,0.6-1.9,1-1.9s0.4,0.5,0.4,0.8c0,1.2,0.9,1.6,1.4,1.6c0.4,0,0.6-0.2,0.6-0.6v0l0,0v0
	l0,0l0-0.5l0,0l0-0.5l0,0v0l0-0.6v0l0,0l0-0.6l0,0v0l0-0.6l0,0l0-0.7v0l0,0l0-0.7v0l0,0l0-0.7l0,0v0l0-0.8v0l0,0l0-0.8l0,0l0-0.9
	l0,0l0-0.9l0,0v0l0-1l0,0v0l0-1l0,0v0l0-1.1v0l0,0l0-1.1V12c0-0.2-0.2-0.4-0.3-0.4c-0.1-0.1-0.2-0.2-0.2-0.4l0.2-0.6l-0.2,0
	c0,0.1-0.1,0.1-0.1,0.2c0,0,0,0-0.1,0l-0.2-0.1c0,0,0,0,0,0c0-0.1,0-0.2,0-0.3c0-0.1,0.1-0.2,0.1-0.2c0,0,0,0,0.1,0l0.2,0.1
	c0,0,0,0,0,0c0,0.1,0,0.1,0,0.2l0.2,0l0.2-0.6l-0.2,0C19.1,9.9,19,10,19,10c0,0,0,0-0.1,0L18.8,10c0,0,0,0,0,0c0-0.1,0-0.2,0-0.3
	c0-0.1,0.1-0.2,0.1-0.2c0,0,0,0,0.1,0l0.2,0.1c0,0,0,0,0,0c0,0.1,0,0.1,0,0.2l0.2,0l0.2-0.6l-0.2,0c0,0.1-0.1,0.1-0.1,0.2
	c0,0,0,0-0.1,0L19,9.2c0,0,0,0,0,0c0-0.1,0-0.2,0-0.3c0-0.1,0.1-0.2,0.1-0.2c0,0,0,0,0.1,0l0.2,0.1c0,0,0,0,0,0c0,0.1,0,0.1,0,0.2
	l0.2,0l0.2-0.6l-0.2,0c0,0.1-0.1,0.1-0.1,0.2c0,0,0,0-0.1,0l-0.2-0.1c0,0,0,0,0,0c0-0.1,0-0.2,0-0.3c0-0.1,0.1-0.2,0.1-0.2
	c0,0,0,0,0.1,0l0.2,0.1c0,0,0,0,0,0c0,0.1,0,0.1,0,0.2l0.2,0l0.2-0.6l-0.2,0c0,0.1-0.1,0.1-0.1,0.2c0,0,0,0-0.1,0l-0.2-0.1
	c0,0,0,0,0,0c0-0.1,0-0.2,0-0.3c0-0.1,0.1-0.2,0.1-0.2c0,0,0,0,0.1,0l0.2,0.1c0,0,0,0,0,0c0,0.1,0,0.1,0,0.2l0.2,0l0.2-0.6l-0.2,0
	C20,6.8,20,6.9,19.9,7c0,0,0,0-0.1,0l-0.2-0.1c0,0,0,0,0,0c0-0.1,0-0.2,0-0.3c0-0.1,0.1-0.2,0.1-0.2c0,0,0,0,0.1,0L20,6.4
	c0,0,0,0,0,0c0,0.1,0,0.1,0,0.2l0.2,0v0c0.1-0.3,0.4-0.6,0.8-0.6l0,0c0.4,0,0.8,0.3,0.8,0.8c0,0.3-0.2,0.6-0.4,0.8l-0.1,0
	c-0.1,0.1-0.2,0.3-0.2,0.4l0.4,2.2c0,0.1,0,0.2-0.1,0.3c-0.3,0.2-0.7,0.6-0.7,1.4v0.1l0,1.1l0,0v0l0,1.1v0l0,0l0.1,2.9l0,0l0,0.9
	l0,0l0,0.8l0,0v0l0,1.5v0l0,0l0,0.7l0,0v0l0,0.7l0,0l0,0.6v0l0,0.6l0,0v0l0,0.5l0,0v0l0,0l0,0.5v0l0,0l0,0.5l0,0v0l0,0.5l0,0v0l0,0
	l0,0.8v0l0,0V26c0.1,0.3,0.3,0.6,0.9,0.6c1.7,0,0.9-1.9,1.8-1.9c0.3,0,0.8,0.3,0.8,1.4c0,1.4-0.8,2-0.8,3c0,1.4,1.5,2.6,1.5,4.8
	C25,35.8,23.9,37.2,19.9,37z M30.6,34.3c2-3.4,4.3-7.8,5.9-12.2c4.4-12.1,1.4-15.6-5.9-18.7c7.8,2.5,10.7,6.7,6.9,17.4
	C36,25.2,33.7,29.8,30.6,34.3z"/>
</svg>
